<?xml version="1.0" encoding="utf-8"?>
<!-- Generator: Adobe Illustrator 22.0.1, SVG Export Plug-In . SVG Version: 6.00 Build 0)  -->
<svg version="1.1" id="圖層_1" xmlns="http://www.w3.org/2000/svg" xmlns:xlink="http://www.w3.org/1999/xlink" x="0px" y="0px"
	 viewBox="0 0 266 178.3" style="enable-background:new 0 0 266 178.3;" xml:space="preserve">
<style type="text/css">
	.st0{display:none;fill:#FFFFFF;}
	.st1{fill:#B82025;}
</style>
<title>g0v-intl</title>
<desc>Created with Sketch.</desc>
<g id="g0v-intl">
	<rect x="-187" y="-90.9" class="st0" width="640" height="360"/>
	<g id="Group" transform="translate(237.000000, 93.000000)">
		<rect id="Rectangle" x="-119" y="-90.9" class="st1" width="32" height="174"/>
		<path id="Shape" d="M-33.9-47.1c-9.7-9.8-28.4-18.8-69.6-18.8c-39.7,0-59.8,8.8-69.7,18.8c-9,9.1-13.9,20.4-13.9,37.2
			s4.9,28,13.9,37.1c9.7,9.8,29.3,18.9,69.7,18.9s59.8-8.9,69.6-18.8C-24.9,18.3-20,7-20-9.9C-20-26.9-24.9-38-33.9-47.1z
			 M-103.4,22.1c-26.3,0-40-5.5-45.8-11.3c-4.5-4.6-7.8-10.5-7.8-21.7s2.8-17.2,7.6-22.1c6-6,19.6-10.9,46-10.9s39.5,5,45.7,11.2
			c4.8,4.9,7.8,10.6,7.8,21.8s-2.8,17.2-7.6,22.1C-63.8,17.4-77.1,22.1-103.4,22.1z"/>
		<rect id="Rectangle_1_" x="-119" y="-90.9" class="st1" width="32" height="82"/>
		<rect id="Rectangle_2_" x="-137" y="-90.9" class="st1" width="68" height="10"/>
		<rect id="Rectangle_3_" x="-137" y="73.1" class="st1" width="68" height="10"/>
	</g>
</g>
</svg>
